<svg width="527" height="313" viewBox="0 0 527 313" fill="none" xmlns="http://www.w3.org/2000/svg">
<g clip-path="url(#clip0)">
<path d="M31.0524 240.12C15.5409 234.501 2.07595 221.06 0.367828 204.711C15.4261 214.44 33.4546 218.55 51.2636 216.316C58.1286 215.43 65.6714 213.732 71.5461 217.379C75.2015 219.648 77.4708 223.676 78.5119 227.838C79.5529 232.001 79.5059 236.346 79.4528 240.635L79.9358 241.591C63.7323 244.724 46.5639 245.74 31.0524 240.12Z" fill="#F0F0F0"/>
<path d="M0.704352 204.63C8.60901 215.726 19.8238 224.06 32.7559 228.449C35.523 229.442 38.4302 229.996 41.3703 230.088C44.2374 230.086 47.0515 229.319 49.5203 227.868C51.8496 226.561 54.0802 224.955 56.688 224.234C58.0284 223.885 59.4278 223.822 60.7944 224.049C62.161 224.276 63.4639 224.788 64.6177 225.552C67.5425 227.381 69.633 230.147 71.5829 232.922C73.748 236.004 75.9477 239.24 79.3274 241.111C79.7369 241.337 79.3597 241.957 78.9509 241.731C73.0708 238.475 70.8936 231.571 65.8886 227.373C63.5531 225.415 60.6108 224.145 57.5244 224.778C54.8255 225.331 52.5238 226.985 50.1769 228.329C47.7893 229.78 45.0812 230.627 42.2892 230.796C39.3538 230.853 36.4301 230.412 33.6432 229.492C27.3359 227.521 21.3791 224.574 15.9909 220.76C9.81724 216.442 4.43094 211.103 0.0650518 204.975C-0.205009 204.596 0.436055 204.253 0.704352 204.63V204.63Z" fill="white"/>
<path d="M28.5083 227.28C27.4744 229.34 25.7386 230.968 23.6109 231.872C21.4832 232.776 19.1021 232.897 16.8929 232.214C16.4463 232.074 16.6434 231.377 17.0905 231.517C19.1465 232.157 21.3645 232.043 23.3441 231.198C25.3238 230.352 26.9346 228.829 27.8859 226.905C28.0931 226.487 28.7143 226.864 28.5083 227.28V227.28Z" fill="white"/>
<path d="M48.427 228.686C46.9704 224.206 43.8718 220.437 39.7488 218.131C39.3401 217.903 39.7172 217.283 40.1254 217.511C44.4113 219.919 47.628 223.847 49.1334 228.513C49.2766 228.957 48.5694 229.128 48.427 228.686Z" fill="white"/>
<path d="M10.6397 215.94C11.2066 215.225 11.5864 214.382 11.7451 213.485C11.9038 212.589 11.8363 211.667 11.5488 210.803C11.4001 210.36 12.1074 210.19 12.2552 210.63C12.5684 211.586 12.6416 212.604 12.4685 213.595C12.2954 214.586 11.8812 215.52 11.2621 216.315C11.2101 216.395 11.1295 216.452 11.0367 216.474C10.9439 216.497 10.8459 216.484 10.7626 216.437C10.6805 216.387 10.6215 216.307 10.5985 216.214C10.5754 216.12 10.5903 216.022 10.6397 215.94V215.94Z" fill="white"/>
<path d="M39.5167 164.996C39.6175 165.27 39.7183 165.544 39.825 165.819C41.1992 169.493 42.8709 173.051 44.8236 176.455C44.9704 176.721 45.1232 176.988 45.2773 177.249C50.0696 185.402 56.3403 192.598 63.7706 198.472C66.7294 200.806 69.8623 202.913 73.1422 204.774C77.6719 207.344 82.7887 209.772 86.1037 213.57C86.4541 213.963 86.7796 214.376 87.0786 214.809L81.0703 240.93C81.0267 240.983 80.9891 241.037 80.9454 241.09L80.7534 242.144C80.5775 242.06 80.3969 241.968 80.221 241.884C80.1188 241.836 80.0179 241.782 79.9157 241.733C79.8479 241.699 79.7802 241.665 79.7171 241.638C79.6946 241.626 79.672 241.615 79.6554 241.605C79.5923 241.578 79.5366 241.546 79.4795 241.521C78.4686 241.014 77.4594 240.5 76.4521 239.977C76.4461 239.976 76.4461 239.976 76.4414 239.969C68.7276 236.061 61.5066 231.255 54.9296 225.653C54.7356 225.483 54.5356 225.313 54.3443 225.131C51.4513 222.572 48.7731 219.781 46.3366 216.787C45.0078 215.144 43.7633 213.434 42.608 211.665C39.6318 207.089 37.3969 202.075 35.9853 196.807C33.1729 186.305 33.7646 175.025 39.1019 165.704C39.2386 165.466 39.374 165.233 39.5167 164.996Z" fill="#F0F0F0"/>
<path d="M39.8362 165.131C39.4386 178.73 43.3541 192.108 51.0265 203.365C52.635 205.818 54.6217 208.003 56.9134 209.839C59.2038 211.557 61.9143 212.632 64.7631 212.953C67.4133 213.306 70.1652 213.361 72.6831 214.349C73.9644 214.874 75.1199 215.662 76.0737 216.663C77.0275 217.664 77.7581 218.854 78.2176 220.155C79.4473 223.369 79.4441 226.831 79.3228 230.216C79.1882 233.975 78.9885 237.877 80.5558 241.397C80.7457 241.824 80.07 242.092 79.8804 241.666C77.1536 235.542 79.5897 228.724 78.1313 222.371C77.4508 219.407 75.8691 216.63 73.0222 215.284C70.5327 214.108 67.695 214.049 65.0085 213.715C62.2248 213.442 59.5505 212.494 57.2193 210.955C54.8411 209.241 52.7732 207.136 51.1042 204.73C47.2599 199.375 44.2852 193.451 42.2889 187.175C39.9707 180.026 38.8978 172.534 39.1166 165.024C39.1303 164.559 39.8498 164.669 39.8362 165.131L39.8362 165.131Z" fill="white"/>
<path d="M48.3417 199.885C46.2704 200.911 43.9004 201.17 41.655 200.616C39.4097 200.062 37.4352 198.731 36.0841 196.861C35.8121 196.482 36.3912 196.043 36.6636 196.423C37.9184 198.166 39.7578 199.406 41.8497 199.917C43.9417 200.429 46.1483 200.179 48.0715 199.213C48.4897 199.003 48.7575 199.677 48.3417 199.885Z" fill="white"/>
<path d="M63.3957 212.95C64.9413 208.5 64.7457 203.633 62.848 199.32C62.6596 198.893 63.3352 198.624 63.5234 199.051C65.4898 203.543 65.683 208.608 64.0644 213.236C63.9098 213.676 63.2419 213.389 63.3957 212.95Z" fill="white"/>
<path d="M40.9309 180.118C41.8154 179.887 42.6285 179.442 43.2973 178.821C43.9661 178.2 44.4696 177.424 44.7626 176.561C44.9115 176.119 45.5792 176.407 45.4313 176.847C45.1031 177.798 44.546 178.655 43.8086 179.342C43.0712 180.03 42.176 180.527 41.2011 180.79C41.1113 180.823 41.0124 180.82 40.9246 180.783C40.8368 180.745 40.7666 180.676 40.7282 180.589C40.6929 180.499 40.6944 180.4 40.7323 180.312C40.7702 180.224 40.8416 180.154 40.9308 180.118H40.9309Z" fill="white"/>
<path d="M500.542 239.581C515.242 232.106 526.946 217.118 526.623 200.684C512.88 212.182 495.495 218.468 477.546 218.431C470.623 218.392 462.928 217.63 457.548 221.968C454.201 224.667 452.446 228.943 451.926 233.201C451.407 237.459 451.99 241.766 452.572 246.016L452.211 247.024C468.678 248.149 485.842 247.056 500.542 239.581Z" fill="#F0F0F0"/>
<path d="M526.279 200.644C519.804 212.624 509.703 222.268 497.411 228.206C494.787 229.531 491.97 230.436 489.064 230.888C486.218 231.237 483.331 230.82 480.702 229.682C478.229 228.67 475.817 227.349 473.14 226.953C471.766 226.77 470.37 226.879 469.042 227.272C467.714 227.665 466.484 228.332 465.433 229.232C462.756 231.404 461.023 234.405 459.43 237.399C457.662 240.722 455.878 244.202 452.755 246.473C452.377 246.748 452.828 247.316 453.205 247.042C458.639 243.091 459.948 235.973 464.397 231.194C466.472 228.965 469.236 227.345 472.377 227.595C475.124 227.814 477.612 229.173 480.107 230.22C482.656 231.368 485.448 231.877 488.239 231.702C491.16 231.4 494.007 230.604 496.659 229.35C502.675 226.622 508.223 222.969 513.1 218.524C518.693 213.482 523.38 207.525 526.956 200.909C527.177 200.5 526.499 200.237 526.279 200.644Z" fill="white"/>
<path d="M501.482 226.526C502.762 228.445 504.686 229.847 506.909 230.484C509.132 231.121 511.51 230.95 513.618 230.001C514.044 229.808 513.763 229.14 513.336 229.333C511.375 230.22 509.159 230.379 507.09 229.782C505.021 229.185 503.235 227.871 502.053 226.078C501.796 225.688 501.226 226.139 501.482 226.526Z" fill="white"/>
<path d="M481.888 230.36C482.78 225.735 485.39 221.616 489.197 218.823C489.575 218.546 489.124 217.978 488.747 218.254C484.791 221.168 482.083 225.46 481.165 230.274C481.078 230.733 481.801 230.816 481.888 230.36H481.888Z" fill="white"/>
<path d="M517.815 213.085C517.164 212.445 516.683 211.655 516.415 210.785C516.147 209.914 516.1 208.991 516.279 208.098C516.372 207.64 515.649 207.558 515.556 208.013C515.364 209 515.417 210.02 515.711 210.982C516.005 211.944 516.531 212.82 517.244 213.533C517.305 213.606 517.392 213.653 517.487 213.664C517.582 213.675 517.678 213.65 517.755 213.594C517.83 213.534 517.878 213.447 517.89 213.352C517.901 213.256 517.874 213.161 517.815 213.085H517.815Z" fill="white"/>
<path d="M482.869 166.062C482.803 166.346 482.736 166.63 482.665 166.917C481.754 170.731 480.534 174.466 479.017 178.084C478.904 178.366 478.785 178.65 478.664 178.927C474.915 187.605 469.58 195.514 462.931 202.253C460.283 204.932 457.434 207.406 454.408 209.655C450.23 212.76 445.452 215.795 442.631 219.97C442.332 220.403 442.06 220.853 441.816 221.319L451.003 246.507C451.053 246.554 451.097 246.603 451.147 246.65L451.468 247.672C451.632 247.567 451.8 247.455 451.964 247.35C452.059 247.289 452.153 247.223 452.248 247.162C452.311 247.12 452.374 247.078 452.433 247.043C452.455 247.029 452.475 247.015 452.491 247.003C452.55 246.969 452.601 246.931 452.655 246.898C453.596 246.272 454.534 245.638 455.469 244.996C455.475 244.994 455.475 244.994 455.478 244.986C462.651 240.163 469.224 234.511 475.06 228.146C475.232 227.954 475.409 227.76 475.576 227.556C478.132 224.662 480.445 221.565 482.494 218.295C483.609 216.502 484.633 214.653 485.562 212.756C487.95 207.85 489.549 202.6 490.3 197.2C491.795 186.433 489.815 175.311 483.368 166.714C483.203 166.494 483.04 166.28 482.869 166.062Z" fill="#F0F0F0"/>
<path d="M482.569 166.235C484.642 179.682 482.407 193.439 476.183 205.549C474.889 208.18 473.187 210.592 471.139 212.695C469.078 214.679 466.521 216.078 463.734 216.746C461.147 217.42 458.423 217.812 456.046 219.1C454.839 219.778 453.79 220.702 452.967 221.812C452.144 222.922 451.565 224.192 451.27 225.54C450.446 228.88 450.877 232.315 451.415 235.66C452.013 239.374 452.693 243.222 451.572 246.907C451.436 247.354 452.14 247.538 452.275 247.092C454.225 240.68 450.966 234.212 451.629 227.729C451.939 224.704 453.166 221.754 455.825 220.07C458.15 218.598 460.959 218.192 463.584 217.532C466.313 216.92 468.85 215.653 470.974 213.84C473.122 211.847 474.915 209.505 476.274 206.914C479.428 201.128 481.649 194.885 482.855 188.413C484.274 181.033 484.414 173.467 483.269 166.041C483.198 165.581 482.498 165.778 482.569 166.235Z" fill="white"/>
<path d="M478.417 201.767C480.6 202.531 482.984 202.498 485.144 201.674C487.303 200.849 489.099 199.287 490.209 197.266C490.432 196.856 489.803 196.491 489.58 196.902C488.549 198.785 486.877 200.241 484.864 201.004C482.851 201.768 480.63 201.79 478.603 201.067C478.162 200.91 477.979 201.611 478.417 201.767Z" fill="white"/>
<path d="M465.09 216.576C463.007 212.348 462.6 207.494 463.951 202.982C464.086 202.535 463.382 202.351 463.248 202.797C461.851 207.496 462.284 212.546 464.462 216.941C464.67 217.359 465.297 216.992 465.09 216.576Z" fill="white"/>
<path d="M483.332 181.242C482.426 181.122 481.564 180.779 480.823 180.245C480.083 179.711 479.488 179.002 479.09 178.182C478.888 177.761 478.261 178.128 478.462 178.547C478.905 179.451 479.564 180.233 480.38 180.825C481.197 181.417 482.147 181.801 483.147 181.943C483.24 181.964 483.338 181.949 483.42 181.901C483.503 181.854 483.564 181.776 483.591 181.685C483.615 181.592 483.602 181.493 483.553 181.411C483.504 181.328 483.425 181.267 483.332 181.242V181.242Z" fill="white"/>
<path d="M459.054 10.7589H355.486V17.3936C355.484 17.7333 355.601 18.063 355.817 18.326C355.609 23.5119 355.486 30.1322 355.486 37.3264V214.706C355.486 231.332 356.156 244.86 356.977 244.86H457.564C458.385 244.86 459.054 231.332 459.054 214.706V37.3264C459.054 30.1322 458.932 23.5119 458.723 18.326C458.939 18.063 459.056 17.7333 459.054 17.3936L459.054 10.7589Z" fill="white"/>
<path d="M457.564 245.577H356.977C356.193 245.577 355.675 245.577 355.204 236.053C354.921 230.338 354.765 222.756 354.765 214.706V37.3265C354.765 30.3734 354.883 23.6155 355.097 18.2973C355.231 15.1042 355.385 12.5465 355.554 10.6942C355.885 7.06793 356.199 6.45538 356.977 6.45538H457.564C458.341 6.45538 458.656 7.06793 458.987 10.6942C459.156 12.5535 459.309 15.1112 459.443 18.2959L459.443 18.2973C459.657 23.6099 459.775 30.3678 459.775 37.3265V214.706C459.775 222.757 459.619 230.338 459.336 236.053C458.865 245.577 458.348 245.577 457.564 245.577ZM357.386 244.143H457.154C457.676 242.182 458.334 231.54 458.334 214.706V37.3265C458.334 30.3867 458.217 23.6498 458.004 18.3561H458.003C457.871 15.1942 457.719 12.66 457.552 10.8238C457.488 9.83746 457.352 8.857 457.147 7.88991H357.393C357.188 8.85701 357.053 9.83746 356.988 10.8238C356.822 12.653 356.67 15.1872 356.537 18.3561C356.323 23.6543 356.206 30.392 356.206 37.3265V214.706C356.206 231.54 356.865 242.182 357.386 244.143Z" fill="#E4E4E4"/>
<path d="M457.564 7.17255H356.977C356.582 7.17331 356.203 7.32997 355.923 7.60824C355.644 7.88651 355.486 8.26373 355.486 8.65729V17.3936C355.484 17.7333 355.601 18.063 355.817 18.326C355.957 18.498 356.134 18.6368 356.335 18.7323C356.535 18.8279 356.754 18.8777 356.977 18.8783H457.564C457.786 18.8777 458.005 18.8278 458.206 18.7323C458.406 18.6367 458.583 18.498 458.723 18.326C458.939 18.063 459.056 17.7333 459.054 17.3936V8.65729C459.054 8.26376 458.896 7.88655 458.617 7.60827C458.338 7.32999 457.959 7.17331 457.564 7.17255Z" fill="#CACACA"/>
<path d="M364.143 14.7075C365.313 14.7075 366.261 13.7635 366.261 12.599C366.261 11.4345 365.313 10.4905 364.143 10.4905C362.974 10.4905 362.026 11.4345 362.026 12.599C362.026 13.7635 362.974 14.7075 364.143 14.7075Z" fill="white"/>
<path d="M372.18 14.7075C373.349 14.7075 374.297 13.7635 374.297 12.599C374.297 11.4345 373.349 10.4905 372.18 10.4905C371.011 10.4905 370.063 11.4345 370.063 12.599C370.063 13.7635 371.011 14.7075 372.18 14.7075Z" fill="white"/>
<path d="M380.217 14.7075C381.386 14.7075 382.334 13.7635 382.334 12.599C382.334 11.4345 381.386 10.4905 380.217 10.4905C379.048 10.4905 378.1 11.4345 378.1 12.599C378.1 13.7635 379.048 14.7075 380.217 14.7075Z" fill="white"/>
<path d="M449.691 9.78345H440.435C440.254 9.78465 440.081 9.85683 439.953 9.98437C439.825 10.1119 439.752 10.2845 439.751 10.4648C439.748 10.5675 439.773 10.6691 439.823 10.7589C439.878 10.8744 439.965 10.9721 440.073 11.0407C440.181 11.1092 440.307 11.1458 440.435 11.1463H449.691C449.82 11.1469 449.947 11.1108 450.057 11.0422C450.167 10.9736 450.255 10.8754 450.31 10.7589C450.355 10.6672 450.377 10.5665 450.375 10.4648C450.375 10.3753 450.358 10.2867 450.323 10.204C450.289 10.1213 450.238 10.0462 450.175 9.98288C450.111 9.9196 450.036 9.86941 449.953 9.83519C449.87 9.80097 449.781 9.78339 449.691 9.78345Z" fill="white"/>
<path d="M449.691 12.3441H440.435C440.254 12.3441 440.08 12.4159 439.951 12.5437C439.823 12.6714 439.751 12.8448 439.751 13.0255C439.751 13.2062 439.823 13.3795 439.951 13.5073C440.08 13.6351 440.254 13.7069 440.435 13.7069H449.691C449.872 13.7069 450.046 13.6351 450.175 13.5073C450.303 13.3795 450.375 13.2062 450.375 13.0255C450.375 12.8448 450.303 12.6714 450.175 12.5437C450.046 12.4159 449.872 12.3441 449.691 12.3441Z" fill="white"/>
<path d="M449.691 14.9047H440.435C440.254 14.9047 440.08 14.9765 439.951 15.1043C439.823 15.2321 439.751 15.4054 439.751 15.5861C439.751 15.7668 439.823 15.9402 439.951 16.0679C440.08 16.1957 440.254 16.2675 440.435 16.2675H449.691C449.872 16.2675 450.046 16.1957 450.175 16.0679C450.303 15.9402 450.375 15.7668 450.375 15.5861C450.375 15.4054 450.303 15.2321 450.175 15.1043C450.046 14.9765 449.872 14.9047 449.691 14.9047Z" fill="white"/>
<path d="M417.278 38.0293H398.234C397.279 38.0297 396.363 38.4077 395.688 39.0802C395.013 39.7526 394.633 40.6646 394.633 41.6157V58.041C394.634 58.9917 395.014 59.903 395.689 60.5752C396.364 61.2474 397.279 61.6258 398.234 61.6274H417.278C418.233 61.6246 419.147 61.2458 419.822 60.5739C420.497 59.9019 420.877 58.9913 420.88 58.041V41.6157C420.878 40.665 420.498 39.7537 419.823 39.0815C419.148 38.4092 418.233 38.0309 417.278 38.0293Z" fill="#051937"/>
<path d="M440.939 72.3576H374.566C374.132 72.3576 373.716 72.5291 373.41 72.8345C373.103 73.1398 372.931 73.554 372.931 73.9858C372.931 74.4176 373.103 74.8317 373.41 75.1371C373.716 75.4424 374.132 75.614 374.566 75.614H440.939C441.373 75.614 441.789 75.4424 442.096 75.1371C442.402 74.8317 442.575 74.4176 442.575 73.9858C442.575 73.554 442.402 73.1398 442.096 72.8345C441.789 72.5291 441.373 72.3576 440.939 72.3576Z" fill="#E4E4E4"/>
<path d="M399.776 79.9893H374.566C374.132 79.9893 373.716 80.1609 373.41 80.4662C373.103 80.7716 372.931 81.1857 372.931 81.6175C372.931 82.0493 373.103 82.4635 373.41 82.7688C373.716 83.0742 374.132 83.2457 374.566 83.2457H399.776C400.209 83.2457 400.625 83.0742 400.932 82.7688C401.238 82.4635 401.411 82.0493 401.411 81.6175C401.411 81.1857 401.238 80.7716 400.932 80.4662C400.625 80.1609 400.209 79.9893 399.776 79.9893Z" fill="#E4E4E4"/>
<path d="M417.278 109.039H398.234C397.279 109.039 396.363 109.417 395.688 110.089C395.013 110.762 394.633 111.674 394.633 112.625V129.05C394.634 130.001 395.014 130.912 395.689 131.584C396.364 132.257 397.279 132.635 398.234 132.637H417.278C418.233 132.634 419.147 132.255 419.822 131.583C420.497 130.911 420.877 130.001 420.88 129.05V112.625C420.878 111.674 420.498 110.763 419.823 110.091C419.148 109.418 418.233 109.04 417.278 109.039Z" fill="#051937"/>
<path d="M440.939 143.367H374.566C374.132 143.367 373.716 143.538 373.41 143.844C373.103 144.149 372.931 144.563 372.931 144.995C372.931 145.427 373.103 145.841 373.41 146.146C373.716 146.452 374.132 146.623 374.566 146.623H440.939C441.373 146.623 441.789 146.452 442.096 146.146C442.402 145.841 442.575 145.427 442.575 144.995C442.575 144.563 442.402 144.149 442.096 143.844C441.789 143.538 441.373 143.367 440.939 143.367Z" fill="#E4E4E4"/>
<path d="M399.776 150.999H374.566C374.132 150.999 373.716 151.17 373.41 151.475C373.103 151.781 372.931 152.195 372.931 152.627C372.931 153.059 373.103 153.473 373.41 153.778C373.716 154.083 374.132 154.255 374.566 154.255H399.776C400.209 154.255 400.625 154.083 400.932 153.778C401.238 153.473 401.411 153.059 401.411 152.627C401.411 152.195 401.238 151.781 400.932 151.475C400.625 151.17 400.209 150.999 399.776 150.999Z" fill="#E4E4E4"/>
<path d="M417.278 180.048H398.234C397.279 180.048 396.363 180.426 395.688 181.099C395.013 181.771 394.633 182.683 394.633 183.634V200.06C394.634 201.01 395.014 201.921 395.689 202.594C396.364 203.266 397.279 203.644 398.234 203.646H417.278C418.233 203.643 419.147 203.264 419.822 202.592C420.497 201.92 420.877 201.01 420.88 200.06V183.634C420.878 182.683 420.498 181.772 419.823 181.1C419.148 180.428 418.233 180.049 417.278 180.048Z" fill="#051937"/>
<path d="M440.939 214.376H374.566C374.132 214.376 373.716 214.548 373.41 214.853C373.103 215.158 372.931 215.572 372.931 216.004C372.931 216.436 373.103 216.85 373.41 217.156C373.716 217.461 374.132 217.632 374.566 217.632H440.939C441.373 217.632 441.789 217.461 442.096 217.156C442.402 216.85 442.575 216.436 442.575 216.004C442.575 215.572 442.402 215.158 442.096 214.853C441.789 214.548 441.373 214.376 440.939 214.376Z" fill="#E4E4E4"/>
<path d="M399.776 222.008H374.566C374.132 222.008 373.716 222.179 373.41 222.485C373.103 222.79 372.931 223.204 372.931 223.636C372.931 224.068 373.103 224.482 373.41 224.787C373.716 225.093 374.132 225.264 374.566 225.264H399.776C400.209 225.264 400.625 225.093 400.932 224.787C401.238 224.482 401.411 224.068 401.411 223.636C401.411 223.204 401.238 222.79 400.932 222.485C400.625 222.179 400.209 222.008 399.776 222.008Z" fill="#E4E4E4"/>
<path d="M327.243 2.20191C327.243 1.80838 327.085 1.43118 326.806 1.1529C326.527 0.874622 326.148 0.717937 325.753 0.717163H59.5018C59.1066 0.717923 58.7278 0.874585 58.4483 1.15286C58.1688 1.43113 58.0115 1.80834 58.0106 2.20191V10.9382C58.0094 11.3019 58.1457 11.6528 58.3926 11.9209C58.1548 17.8526 58.0106 25.6708 58.0106 34.235V231.418C58.0106 249.909 58.6806 264.943 59.5018 264.943H325.753C326.574 264.943 327.243 249.909 327.243 231.418V34.235C327.243 25.6708 327.1 17.8526 326.862 11.9209C327.109 11.6527 327.245 11.3019 327.243 10.9382V2.20191Z" fill="white"/>
<path d="M325.753 265.661H59.5018C58.6879 265.661 58.1966 265.661 57.7286 255.147C57.446 248.795 57.2903 240.369 57.2903 231.418V34.235C57.2903 25.9812 57.4262 18.0465 57.6729 11.8923C58.1464 -2.09411e-05 58.6856 -3.05176e-05 59.5018 -3.05176e-05H325.753C326.569 -3.05176e-05 327.108 0.00208042 327.582 11.8923C327.828 18.0409 327.964 25.9756 327.964 34.235V231.418C327.964 240.369 327.808 248.796 327.526 255.147C327.058 265.661 326.566 265.661 325.753 265.661ZM59.9223 264.226H325.332C325.921 261.977 326.523 249.35 326.523 231.418V34.235C326.523 25.9942 326.388 18.0794 326.142 11.9497V11.9494C325.842 4.41564 325.492 2.12305 325.325 1.4345H59.9301C59.7626 2.12307 59.4123 4.41564 59.1122 11.9494C58.8663 18.0854 58.7309 25.9998 58.7309 34.235V231.418C58.7309 249.35 59.3328 261.977 59.9223 264.226Z" fill="#E4E4E4"/>
<path d="M325.753 0.717163H59.5018C59.1066 0.717923 58.7278 0.874585 58.4483 1.15286C58.1688 1.43113 58.0115 1.80834 58.0106 2.20191V10.9382C58.0094 11.3019 58.1457 11.6528 58.3926 11.9208C58.531 12.0783 58.7015 12.2045 58.8928 12.2911C59.0841 12.3776 59.2917 12.4226 59.5018 12.4229H325.753C325.963 12.4226 326.17 12.3776 326.362 12.2911C326.553 12.2045 326.723 12.0783 326.862 11.9208C327.109 11.6527 327.245 11.3019 327.243 10.9382V2.20191C327.243 1.80839 327.085 1.4312 326.806 1.15292C326.527 0.874645 326.148 0.717952 325.753 0.717163Z" fill="#CACACA"/>
<path d="M66.6683 8.2521C67.8377 8.2521 68.7856 7.3081 68.7856 6.14361C68.7856 4.97913 67.8377 4.03513 66.6683 4.03513C65.4989 4.03513 64.5509 4.97913 64.5509 6.14361C64.5509 7.3081 65.4989 8.2521 66.6683 8.2521Z" fill="white"/>
<path d="M74.705 8.2521C75.8744 8.2521 76.8224 7.3081 76.8224 6.14361C76.8224 4.97913 75.8744 4.03513 74.705 4.03513C73.5356 4.03513 72.5877 4.97913 72.5877 6.14361C72.5877 7.3081 73.5356 8.2521 74.705 8.2521Z" fill="white"/>
<path d="M82.7421 8.2521C83.9115 8.2521 84.8595 7.3081 84.8595 6.14361C84.8595 4.97913 83.9115 4.03513 82.7421 4.03513C81.5728 4.03513 80.6248 4.97913 80.6248 6.14361C80.6248 7.3081 81.5728 8.2521 82.7421 8.2521Z" fill="white"/>
<path d="M317.88 3.32806H308.624C308.443 3.32806 308.269 3.39985 308.14 3.52764C308.012 3.65543 307.94 3.82874 307.94 4.00946C307.94 4.19018 308.012 4.3635 308.14 4.49129C308.269 4.61908 308.443 4.69087 308.624 4.69087H317.88C318.061 4.69087 318.235 4.61908 318.364 4.49129C318.492 4.3635 318.564 4.19018 318.564 4.00946C318.564 3.82874 318.492 3.65543 318.364 3.52764C318.235 3.39985 318.061 3.32806 317.88 3.32806Z" fill="white"/>
<path d="M317.88 5.8887H308.624C308.443 5.8887 308.269 5.96049 308.14 6.08828C308.012 6.21606 307.94 6.38938 307.94 6.5701C307.94 6.75082 308.012 6.92414 308.14 7.05193C308.269 7.17971 308.443 7.2515 308.624 7.2515H317.88C318.061 7.2515 318.235 7.17971 318.364 7.05193C318.492 6.92414 318.564 6.75082 318.564 6.5701C318.564 6.38938 318.492 6.21606 318.364 6.08828C318.235 5.96049 318.061 5.8887 317.88 5.8887Z" fill="white"/>
<path d="M317.88 8.44934H308.624C308.443 8.44934 308.269 8.52114 308.14 8.64893C308.012 8.77671 307.94 8.95002 307.94 9.13074C307.94 9.31146 308.012 9.48478 308.14 9.61257C308.269 9.74035 308.443 9.81215 308.624 9.81215H317.88C318.061 9.81215 318.235 9.74035 318.364 9.61257C318.492 9.48478 318.564 9.31146 318.564 9.13074C318.564 8.95002 318.492 8.77671 318.364 8.64893C318.235 8.52114 318.061 8.44934 317.88 8.44934Z" fill="white"/>
<path d="M145.561 44.4847H114.401C112.839 44.4866 111.342 45.1054 110.237 46.2053C109.133 47.3052 108.511 48.7965 108.51 50.352V77.2279C108.511 78.7833 109.133 80.2746 110.237 81.3745C111.342 82.4744 112.839 83.0932 114.401 83.0951H145.561C147.123 83.0932 148.62 82.4744 149.725 81.3745C150.829 80.2746 151.45 78.7833 151.452 77.2279V50.352C151.45 48.7965 150.829 47.3052 149.725 46.2053C148.62 45.1054 147.123 44.4866 145.561 44.4847Z" fill="#051937"/>
<path d="M274.08 54.8779H165.476C164.767 54.8779 164.086 55.1586 163.584 55.6584C163.082 56.1581 162.8 56.8358 162.8 57.5425C162.8 58.2492 163.082 58.927 163.584 59.4267C164.086 59.9264 164.767 60.2072 165.476 60.2072H274.08C274.789 60.2072 275.47 59.9264 275.972 59.4267C276.474 58.927 276.756 58.2492 276.756 57.5425C276.756 56.8358 276.474 56.1581 275.972 55.6584C275.47 55.1586 274.789 54.8779 274.08 54.8779Z" fill="#E4E4E4"/>
<path d="M206.727 67.3654H165.476C164.767 67.3654 164.086 67.6462 163.584 68.1459C163.082 68.6456 162.8 69.3234 162.8 70.0301C162.8 70.7368 163.082 71.4145 163.584 71.9142C164.086 72.414 164.767 72.6947 165.476 72.6947H206.727C207.436 72.6947 208.117 72.414 208.619 71.9142C209.121 71.4145 209.402 70.7368 209.402 70.0301C209.402 69.3234 209.121 68.6456 208.619 68.1459C208.117 67.6462 207.436 67.3654 206.727 67.3654Z" fill="#E4E4E4"/>
<path d="M145.561 116.211H114.401C112.839 116.213 111.342 116.832 110.237 117.932C109.133 119.032 108.511 120.523 108.51 122.078V148.954C108.511 150.51 109.133 152.001 110.237 153.101C111.342 154.201 112.839 154.82 114.401 154.822H145.561C147.123 154.82 148.62 154.201 149.725 153.101C150.829 152.001 151.45 150.51 151.452 148.954V122.078C151.45 120.523 150.829 119.032 149.725 117.932C148.62 116.832 147.123 116.213 145.561 116.211Z" fill="#051937"/>
<path d="M274.08 126.604H165.476C164.767 126.604 164.086 126.885 163.584 127.385C163.082 127.885 162.8 128.562 162.8 129.269C162.8 129.976 163.082 130.654 163.584 131.153C164.086 131.653 164.767 131.934 165.476 131.934H274.08C274.789 131.934 275.47 131.653 275.972 131.153C276.474 130.654 276.756 129.976 276.756 129.269C276.756 128.562 276.474 127.885 275.972 127.385C275.47 126.885 274.789 126.604 274.08 126.604Z" fill="#E4E4E4"/>
<path d="M206.727 139.092H165.476C164.767 139.092 164.086 139.373 163.584 139.872C163.082 140.372 162.8 141.05 162.8 141.757C162.8 142.463 163.082 143.141 163.584 143.641C164.086 144.14 164.767 144.421 165.476 144.421H206.727C207.436 144.421 208.117 144.14 208.619 143.641C209.121 143.141 209.402 142.463 209.402 141.757C209.402 141.05 209.121 140.372 208.619 139.872C208.117 139.373 207.436 139.092 206.727 139.092Z" fill="#E4E4E4"/>
<path d="M145.561 187.938H114.401C112.839 187.94 111.342 188.558 110.237 189.658C109.133 190.758 108.511 192.249 108.51 193.805V220.681C108.511 222.236 109.133 223.728 110.237 224.828C111.342 225.927 112.839 226.546 114.401 226.548H145.561C147.123 226.546 148.62 225.927 149.725 224.828C150.829 223.728 151.45 222.236 151.452 220.681V193.805C151.45 192.249 150.829 190.758 149.725 189.658C148.62 188.558 147.123 187.94 145.561 187.938Z" fill="#051937"/>
<path d="M274.08 198.331H165.476C164.767 198.331 164.086 198.612 163.584 199.111C163.082 199.611 162.8 200.289 162.8 200.996C162.8 201.702 163.082 202.38 163.584 202.88C164.086 203.379 164.767 203.66 165.476 203.66H274.08C274.789 203.66 275.47 203.379 275.972 202.88C276.474 202.38 276.756 201.702 276.756 200.996C276.756 200.289 276.474 199.611 275.972 199.111C275.47 198.612 274.789 198.331 274.08 198.331Z" fill="#E4E4E4"/>
<path d="M206.727 210.818H165.476C164.767 210.818 164.086 211.099 163.584 211.599C163.082 212.099 162.8 212.776 162.8 213.483C162.8 214.19 163.082 214.868 163.584 215.367C164.086 215.867 164.767 216.148 165.476 216.148H206.727C207.436 216.148 208.117 215.867 208.619 215.367C209.121 214.868 209.402 214.19 209.402 213.483C209.402 212.776 209.121 212.099 208.619 211.599C208.117 211.099 207.436 210.818 206.727 210.818Z" fill="#E4E4E4"/>
<path d="M373.293 312.283H194.917C194.095 312.283 193.426 299.695 193.426 284.221V119.154C193.426 103.68 194.095 91.0921 194.917 91.0921H373.293C374.116 91.0921 374.784 103.68 374.784 119.154V284.221C374.784 299.695 374.116 312.283 373.293 312.283Z" fill="white"/>
<path d="M373.293 313H194.917C194.162 313 193.617 313 193.144 304.093C192.861 298.774 192.705 291.717 192.705 284.221V119.154C192.705 111.658 192.861 104.601 193.144 99.2824C193.617 90.3747 194.162 90.3747 194.917 90.3747H373.293C374.048 90.3747 374.593 90.3747 375.066 99.2824C375.349 104.601 375.505 111.658 375.505 119.154V284.221C375.505 291.717 375.349 298.774 375.066 304.093C374.593 313 374.048 313 373.293 313ZM195.316 311.565H372.894C373.411 309.707 374.064 299.807 374.064 284.221V119.154C374.064 103.568 373.411 93.6675 372.894 91.8092H195.316C194.799 93.6675 194.146 103.568 194.146 119.154V284.221C194.146 299.807 194.799 309.707 195.316 311.565Z" fill="#E4E4E4"/>
<path d="M373.293 102.798H194.917C194.522 102.798 194.143 102.641 193.863 102.363C193.583 102.084 193.426 101.707 193.426 101.313V92.5772C193.426 92.1834 193.583 91.806 193.863 91.5275C194.143 91.2491 194.522 91.0925 194.917 91.0921H373.293C373.689 91.0925 374.068 91.2491 374.347 91.5275C374.627 91.806 374.784 92.1834 374.784 92.5772V101.313C374.784 101.707 374.627 102.084 374.347 102.363C374.068 102.641 373.689 102.798 373.293 102.798Z" fill="#CACACA"/>
<path d="M202.081 98.6275C203.25 98.6275 204.198 97.6835 204.198 96.519C204.198 95.3545 203.25 94.4105 202.081 94.4105C200.911 94.4105 199.963 95.3545 199.963 96.519C199.963 97.6835 200.911 98.6275 202.081 98.6275Z" fill="white"/>
<path d="M210.117 98.6275C211.287 98.6275 212.235 97.6835 212.235 96.519C212.235 95.3545 211.287 94.4105 210.117 94.4105C208.948 94.4105 208 95.3545 208 96.519C208 97.6835 208.948 98.6275 210.117 98.6275Z" fill="white"/>
<path d="M218.154 98.6275C219.324 98.6275 220.272 97.6835 220.272 96.519C220.272 95.3545 219.324 94.4105 218.154 94.4105C216.985 94.4105 216.037 95.3545 216.037 96.519C216.037 97.6835 216.985 98.6275 218.154 98.6275Z" fill="white"/>
<path d="M365.419 95.0678H356.164C355.982 95.0678 355.808 94.9958 355.679 94.8678C355.551 94.7398 355.479 94.5662 355.479 94.3851C355.479 94.2041 355.551 94.0304 355.679 93.9024C355.808 93.7744 355.982 93.7025 356.164 93.7025H365.419C365.6 93.703 365.774 93.7752 365.902 93.9032C366.03 94.0311 366.102 94.2044 366.102 94.3851C366.102 94.5658 366.03 94.7391 365.902 94.867C365.774 94.995 365.6 95.0672 365.419 95.0678Z" fill="white"/>
<path d="M365.419 97.6277H356.164C355.982 97.6277 355.808 97.5558 355.679 97.4278C355.551 97.2998 355.479 97.1261 355.479 96.9451C355.479 96.764 355.551 96.5904 355.679 96.4624C355.808 96.3344 355.982 96.2624 356.164 96.2624H365.419C365.601 96.2624 365.775 96.3344 365.903 96.4624C366.032 96.5904 366.104 96.764 366.104 96.9451C366.104 97.1261 366.032 97.2998 365.903 97.4278C365.775 97.5558 365.601 97.6277 365.419 97.6277Z" fill="white"/>
<path d="M365.419 100.188H356.164C355.982 100.188 355.808 100.116 355.679 99.9878C355.551 99.8597 355.479 99.6861 355.479 99.5051C355.479 99.324 355.551 99.1503 355.679 99.0223C355.808 98.8943 355.982 98.8224 356.164 98.8224H365.419C365.6 98.823 365.774 98.8952 365.902 99.0231C366.03 99.1511 366.102 99.3244 366.102 99.5051C366.102 99.6857 366.03 99.859 365.902 99.987C365.774 100.115 365.6 100.187 365.419 100.188Z" fill="white"/>
<path d="M249.73 157.021H226.974C225.833 157.02 224.739 156.568 223.933 155.765C223.126 154.961 222.672 153.872 222.671 152.736V133.109C222.672 131.973 223.126 130.884 223.933 130.08C224.739 129.277 225.833 128.825 226.974 128.824H249.73C250.871 128.825 251.965 129.277 252.772 130.08C253.578 130.884 254.032 131.973 254.033 133.109V152.736C254.032 153.872 253.578 154.961 252.772 155.765C251.965 156.568 250.871 157.02 249.73 157.021Z" fill="#051937"/>
<path d="M343.586 140.308H264.275C263.757 140.308 263.26 140.103 262.894 139.739C262.527 139.374 262.322 138.879 262.322 138.363C262.322 137.847 262.527 137.352 262.894 136.987C263.26 136.622 263.757 136.417 264.275 136.417H343.586C344.104 136.417 344.601 136.622 344.967 136.987C345.333 137.352 345.539 137.847 345.539 138.363C345.539 138.879 345.333 139.374 344.967 139.739C344.601 140.103 344.104 140.308 343.586 140.308Z" fill="#E4E4E4"/>
<path d="M294.399 149.428H264.275C263.757 149.428 263.26 149.223 262.894 148.858C262.527 148.493 262.322 147.998 262.322 147.482C262.322 146.966 262.527 146.471 262.894 146.106C263.26 145.742 263.757 145.537 264.275 145.537H294.399C294.655 145.536 294.91 145.586 295.147 145.684C295.385 145.781 295.601 145.924 295.783 146.105C295.964 146.286 296.109 146.5 296.207 146.737C296.305 146.973 296.356 147.226 296.356 147.482C296.356 147.738 296.305 147.991 296.207 148.228C296.109 148.464 295.964 148.678 295.783 148.859C295.601 149.04 295.385 149.183 295.147 149.281C294.91 149.378 294.655 149.428 294.399 149.428Z" fill="#E4E4E4"/>
<path d="M249.73 215.12H226.974C225.833 215.118 224.739 214.666 223.933 213.863C223.126 213.06 222.672 211.97 222.671 210.834V191.208C222.672 190.071 223.126 188.982 223.933 188.179C224.739 187.375 225.833 186.924 226.974 186.922H249.73C250.871 186.924 251.965 187.375 252.772 188.179C253.578 188.982 254.032 190.071 254.033 191.208V210.834C254.032 211.97 253.578 213.06 252.772 213.863C251.965 214.666 250.871 215.118 249.73 215.12Z" fill="#051937"/>
<path d="M343.586 198.407H264.275C263.757 198.407 263.26 198.202 262.894 197.837C262.527 197.472 262.322 196.977 262.322 196.461C262.322 195.945 262.527 195.45 262.894 195.086C263.26 194.721 263.757 194.516 264.275 194.516H343.586C344.104 194.516 344.601 194.721 344.967 195.086C345.333 195.45 345.539 195.945 345.539 196.461C345.539 196.977 345.333 197.472 344.967 197.837C344.601 198.202 344.104 198.407 343.586 198.407Z" fill="#E4E4E4"/>
<path d="M294.399 207.526H264.275C263.757 207.526 263.26 207.321 262.894 206.956C262.527 206.591 262.322 206.097 262.322 205.581C262.322 205.065 262.527 204.57 262.894 204.205C263.26 203.84 263.757 203.635 264.275 203.635H294.399C294.655 203.635 294.91 203.684 295.147 203.782C295.385 203.88 295.601 204.023 295.783 204.204C295.964 204.384 296.109 204.599 296.207 204.835C296.305 205.071 296.356 205.325 296.356 205.581C296.356 205.836 296.305 206.09 296.207 206.326C296.109 206.562 295.964 206.777 295.783 206.958C295.601 207.138 295.385 207.282 295.147 207.379C294.91 207.477 294.655 207.527 294.399 207.526Z" fill="#E4E4E4"/>
<path d="M249.73 273.218H226.974C225.833 273.217 224.739 272.765 223.933 271.961C223.126 271.158 222.672 270.069 222.671 268.933V249.306C222.672 248.17 223.126 247.081 223.933 246.277C224.739 245.474 225.833 245.022 226.974 245.021H249.73C250.871 245.022 251.965 245.474 252.772 246.277C253.578 247.081 254.032 248.17 254.033 249.306V268.933C254.032 270.069 253.578 271.158 252.772 271.961C251.965 272.765 250.871 273.217 249.73 273.218Z" fill="#051937"/>
<path d="M343.586 256.505H264.275C263.757 256.505 263.26 256.3 262.894 255.935C262.527 255.571 262.322 255.076 262.322 254.56C262.322 254.044 262.527 253.549 262.894 253.184C263.26 252.819 263.757 252.614 264.275 252.614H343.586C344.104 252.614 344.601 252.819 344.967 253.184C345.333 253.549 345.539 254.044 345.539 254.56C345.539 255.076 345.333 255.571 344.967 255.935C344.601 256.3 344.104 256.505 343.586 256.505Z" fill="#E4E4E4"/>
<path d="M294.399 265.625H264.275C263.757 265.625 263.26 265.42 262.894 265.055C262.527 264.69 262.322 264.195 262.322 263.679C262.322 263.163 262.527 262.668 262.894 262.303C263.26 261.938 263.757 261.734 264.275 261.734H294.399C294.655 261.733 294.91 261.783 295.147 261.881C295.385 261.978 295.601 262.121 295.783 262.302C295.964 262.483 296.109 262.697 296.207 262.934C296.305 263.17 296.356 263.423 296.356 263.679C296.356 263.935 296.305 264.188 296.207 264.424C296.109 264.661 295.964 264.875 295.783 265.056C295.601 265.237 295.385 265.38 295.147 265.478C294.91 265.575 294.655 265.625 294.399 265.625Z" fill="#E4E4E4"/>
</g>
<defs>
<clipPath id="clip0">
<rect width="527" height="313" fill="white"/>
</clipPath>
</defs>
</svg>
