<svg xmlns="http://www.w3.org/2000/svg" xmlns:xlink="http://www.w3.org/1999/xlink" width="527" height="313" fill="none" xmlns:v="https://vecta.io/nano"><style><![CDATA[.B{fill:#e4e4e4}.C{fill:#fff}.D{fill:#051937}.E{fill:#f0f0f0}.F{fill:#cacaca}]]></style><g clip-path="url(#A)"><path d="M31.052 240.12C15.541 234.501 2.076 221.06.368 204.711a76.3 76.3 0 0 0 50.896 11.605c6.865-.886 14.408-2.584 20.283 1.063 3.655 2.269 5.925 6.297 6.966 10.459s.994 8.508.941 12.797l.483.956c-16.203 3.133-33.372 4.149-48.883-1.471z" class="E"/><g class="C"><path d="M.704 204.63c7.905 11.096 19.119 19.43 32.052 23.819a28.11 28.11 0 0 0 8.614 1.639 16.11 16.11 0 0 0 8.15-2.22c2.329-1.307 4.56-2.913 7.168-3.634 1.34-.349 2.74-.412 4.106-.185s2.669.739 3.823 1.503c2.925 1.829 5.015 4.595 6.965 7.37 2.165 3.082 4.365 6.318 7.745 8.189.41.226.032.846-.376.62-5.88-3.256-8.057-10.16-13.062-14.358-2.335-1.958-5.278-3.228-8.364-2.595-2.699.553-5.001 2.207-7.347 3.551a17.19 17.19 0 0 1-7.888 2.467c-2.935.057-5.859-.384-8.646-1.304a63.16 63.16 0 0 1-17.652-8.732c-6.174-4.318-11.56-9.657-15.926-15.785-.27-.379.371-.722.639-.345h0z"/><path d="M28.508 227.28a9.74 9.74 0 0 1-4.897 4.592 9.79 9.79 0 0 1-6.718.342c-.447-.14-.25-.837.198-.697a9.07 9.07 0 0 0 6.254-.319 9.02 9.02 0 0 0 4.542-4.293c.207-.418.828-.041.622.375h0zm19.919 1.406c-1.457-4.48-4.555-8.249-8.678-10.555-.409-.228-.032-.848.377-.62 4.286 2.408 7.503 6.336 9.008 11.002.143.444-.564.615-.706.173zM10.64 215.94a5.49 5.49 0 0 0 1.105-2.455 5.47 5.47 0 0 0-.196-2.682c-.149-.443.559-.613.706-.173.313.956.386 1.974.213 2.965a6.15 6.15 0 0 1-1.206 2.72.37.37 0 0 1-.225.159c-.093.023-.191.01-.274-.037s-.141-.13-.164-.223-.008-.192.041-.274h0z"/></g><path d="M39.517 164.996l.308.823a72.23 72.23 0 0 0 4.999 10.636l.454.794c4.792 8.153 11.063 15.349 18.493 21.223 2.959 2.334 6.092 4.441 9.372 6.302 4.53 2.57 9.647 4.998 12.962 8.796.35.393.676.806.975 1.239L81.07 240.93c-.044.053-.081.107-.125.16l-.192 1.054-.532-.26c-.102-.048-.203-.102-.305-.151-.068-.034-.136-.068-.199-.095-.023-.012-.045-.023-.062-.033-.063-.027-.119-.059-.176-.084l-3.027-1.544c-7.725-3.916-14.946-8.722-21.522-14.324-.194-.17-.394-.34-.585-.522a70.82 70.82 0 0 1-8.008-8.344c-1.329-1.643-2.573-3.353-3.729-5.122a51.88 51.88 0 0 1-6.623-14.858c-2.812-10.502-2.221-21.782 3.117-31.103l.415-.708z" class="E"/><g class="C"><path d="M39.836 165.131c-.398 13.599 3.518 26.977 11.19 38.234a27.9 27.9 0 0 0 5.887 6.474c2.29 1.718 5.001 2.793 7.85 3.114 2.65.353 5.402.408 7.92 1.396a9.83 9.83 0 0 1 3.391 2.314 9.79 9.79 0 0 1 2.144 3.492c1.23 3.214 1.227 6.676 1.105 10.061-.135 3.759-.334 7.661 1.233 11.181.19.427-.486.695-.675.269-2.727-6.124-.291-12.942-1.749-19.295-.68-2.964-2.262-5.741-5.109-7.087-2.489-1.176-5.327-1.235-8.014-1.569-2.784-.273-5.458-1.221-7.789-2.76a25.8 25.8 0 0 1-6.115-6.225c-3.844-5.355-6.819-11.279-8.815-17.555-2.318-7.149-3.391-14.641-3.172-22.151.014-.465.733-.355.72.107h0z"/><path d="M48.342 199.885c-2.071 1.026-4.441 1.285-6.687.731a9.75 9.75 0 0 1-5.571-3.755c-.272-.379.307-.818.58-.438a9.03 9.03 0 0 0 5.186 3.494c2.092.512 4.299.262 6.222-.704.418-.21.686.464.27.672zm15.054 13.065a18.64 18.64 0 0 0-.548-13.63c-.188-.427.487-.696.675-.269 1.966 4.492 2.16 9.557.541 14.185-.155.44-.823.153-.669-.286zm-22.465-32.832a5.53 5.53 0 0 0 2.366-1.297 5.49 5.49 0 0 0 1.465-2.26c.149-.442.817-.154.669.286-.328.951-.885 1.808-1.623 2.495a6.18 6.18 0 0 1-2.608 1.448c-.09.033-.189.03-.276-.007s-.158-.107-.196-.194a.35.35 0 0 1 .004-.277c.038-.088.109-.158.198-.194h0z"/></g><path d="M500.542 239.581c14.7-7.475 26.404-22.463 26.081-38.897-13.743 11.498-31.128 17.784-49.077 17.747-6.923-.039-14.618-.801-19.998 3.537-3.347 2.699-5.102 6.975-5.622 11.233s.064 8.565.646 12.815l-.361 1.008c16.467 1.125 33.631.032 48.331-7.443z" class="E"/><g class="C"><path d="M526.279 200.644c-6.475 11.98-16.576 21.624-28.868 27.562a28.1 28.1 0 0 1-8.347 2.682c-2.846.349-5.733-.068-8.362-1.206-2.473-1.012-4.885-2.333-7.562-2.729-1.374-.183-2.77-.074-4.098.319a9.84 9.84 0 0 0-3.609 1.96c-2.677 2.172-4.41 5.173-6.003 8.167-1.768 3.323-3.552 6.803-6.675 9.074-.378.275.073.843.45.569 5.434-3.951 6.743-11.069 11.192-15.848 2.075-2.229 4.839-3.849 7.98-3.599 2.747.219 5.235 1.578 7.73 2.625 2.549 1.148 5.341 1.657 8.132 1.482a25.94 25.94 0 0 0 8.42-2.352c6.016-2.728 11.564-6.381 16.441-10.826a65.92 65.92 0 0 0 13.856-17.615c.221-.409-.457-.672-.677-.265z"/><path d="M501.482 226.526a9.75 9.75 0 0 0 5.427 3.958 9.78 9.78 0 0 0 6.709-.483c.426-.193.145-.861-.282-.668-1.961.887-4.177 1.046-6.246.449a9.03 9.03 0 0 1-5.037-3.704c-.257-.39-.827.061-.571.448zm-19.594 3.834c.892-4.625 3.502-8.744 7.309-11.537.378-.277-.073-.845-.45-.569a19.46 19.46 0 0 0-7.582 12.02c-.087.459.636.542.723.086h0zm35.927-17.275c-.651-.64-1.132-1.43-1.4-2.3s-.315-1.794-.136-2.687c.093-.458-.63-.54-.723-.085-.192.987-.139 2.007.155 2.969a6.15 6.15 0 0 0 1.533 2.551c.061.073.148.12.243.131a.38.38 0 0 0 .268-.07.37.37 0 0 0 .135-.242c.011-.096-.016-.191-.075-.267h0z"/></g><path d="M482.869 166.062l-.204.855a72.35 72.35 0 0 1-3.648 11.167l-.353.843c-3.749 8.678-9.084 16.587-15.733 23.326a74.3 74.3 0 0 1-8.523 7.402c-4.178 3.105-8.956 6.14-11.777 10.315a12.92 12.92 0 0 0-.815 1.349l9.187 25.188c.05.047.094.096.144.143l.321 1.022.496-.322.284-.188a4.33 4.33 0 0 1 .185-.119c.022-.014.042-.028.058-.04.059-.034.11-.072.164-.105l2.814-1.902c7.182-4.833 13.755-10.485 19.591-16.85.172-.192.349-.386.516-.59 2.556-2.894 4.869-5.991 6.918-9.261 1.115-1.793 2.139-3.642 3.068-5.539A51.87 51.87 0 0 0 490.3 197.2c1.495-10.767-.485-21.889-6.932-30.486l-.499-.652z" class="E"/><g class="C"><path d="M482.569 166.235c2.073 13.447-.162 27.204-6.386 39.314a27.88 27.88 0 0 1-5.044 7.146c-2.061 1.984-4.618 3.383-7.405 4.051-2.587.674-5.311 1.066-7.688 2.354-1.207.678-2.256 1.602-3.079 2.712s-1.402 2.38-1.697 3.728c-.824 3.34-.393 6.775.145 10.12.598 3.714 1.278 7.562.157 11.247-.136.447.568.631.703.185 1.95-6.412-1.309-12.88-.646-19.363.31-3.025 1.537-5.975 4.196-7.659 2.325-1.472 5.134-1.878 7.759-2.538a17.17 17.17 0 0 0 7.39-3.692c2.148-1.993 3.941-4.335 5.3-6.926 3.154-5.786 5.375-12.029 6.581-18.501a65.56 65.56 0 0 0 .414-22.372c-.071-.46-.771-.263-.7.194z"/><path d="M478.417 201.767c2.183.764 4.567.731 6.727-.093s3.955-2.387 5.065-4.408c.223-.41-.406-.775-.629-.364a9.02 9.02 0 0 1-4.716 4.102c-2.013.764-4.234.786-6.261.063-.441-.157-.624.544-.186.7zm-13.327 14.809a18.65 18.65 0 0 1-1.139-13.594c.135-.447-.569-.631-.703-.185-1.397 4.699-.964 9.749 1.214 14.144.208.418.835.051.628-.365zm18.242-35.334c-.906-.12-1.768-.463-2.509-.997a5.51 5.51 0 0 1-1.733-2.063c-.202-.421-.829-.054-.628.365a6.17 6.17 0 0 0 1.918 2.278 6.2 6.2 0 0 0 2.767 1.118c.093.021.191.006.273-.042a.37.37 0 0 0 .171-.216.36.36 0 0 0-.038-.274c-.049-.083-.128-.144-.221-.169h0zM459.054 10.759H355.486v6.635c-.002.34.115.669.331.932-.208 5.186-.331 11.806-.331 19v177.38c0 16.626.67 30.154 1.491 30.154h100.587c.821 0 1.49-13.528 1.49-30.154V37.326c0-7.194-.122-13.814-.331-19 .216-.263.333-.593.331-.932v-6.635z"/></g><path d="M457.564 245.577H356.977c-.784 0-1.302 0-1.773-9.524-.283-5.715-.439-13.297-.439-21.347V37.327c0-6.953.118-13.711.332-19.029.134-3.193.288-5.751.457-7.603.331-3.626.645-4.239 1.423-4.239h100.587c.777 0 1.092.613 1.423 4.239.169 1.859.322 4.417.456 7.602v.001c.214 5.313.332 12.071.332 19.029v177.379c0 8.051-.156 15.632-.439 21.347-.471 9.524-.988 9.524-1.772 9.524zm-100.178-1.434h99.768c.522-1.961 1.18-12.603 1.18-29.437V37.327c0-6.94-.117-13.677-.33-18.97h-.001c-.132-3.162-.284-5.696-.451-7.532-.064-.986-.2-1.967-.405-2.934h-99.754c-.205.967-.34 1.948-.405 2.934-.166 1.829-.318 4.363-.451 7.532-.214 5.298-.331 12.036-.331 18.97v177.379c0 16.834.659 27.476 1.18 29.437z" class="B"/><path d="M457.564 7.173H356.977a1.5 1.5 0 0 0-1.054.436c-.279.278-.437.655-.437 1.049v8.736c-.002.34.115.669.331.932.14.172.317.311.518.406s.419.145.642.146h100.587c.222-.001.441-.05.642-.146a1.5 1.5 0 0 0 .517-.406c.216-.263.333-.593.331-.932V8.657c0-.394-.158-.771-.437-1.049s-.658-.435-1.053-.436z" class="F"/><g class="C"><path d="M364.143 14.708c1.17 0 2.118-.944 2.118-2.108s-.948-2.108-2.118-2.108-2.117.944-2.117 2.108.948 2.108 2.117 2.108z"/><use xlink:href="#B"/><path d="M380.217 14.708c1.169 0 2.117-.944 2.117-2.108s-.948-2.108-2.117-2.108-2.117.944-2.117 2.108.948 2.108 2.117 2.108zm69.474-4.925h-9.256a.69.69 0 0 0-.482.201c-.128.128-.201.3-.202.48a.57.57 0 0 0 .072.294.68.68 0 0 0 .612.387h9.256a.69.69 0 0 0 .366-.104.67.67 0 0 0 .253-.283.64.64 0 0 0 .065-.294.67.67 0 0 0-.052-.261c-.034-.083-.085-.158-.148-.221a.69.69 0 0 0-.484-.2z"/><use xlink:href="#C"/><path d="M449.691 14.905h-9.256a.69.69 0 0 0-.484.2.68.68 0 0 0 0 .964.69.69 0 0 0 .484.2h9.256a.69.69 0 0 0 .484-.2.68.68 0 0 0 0-.964.69.69 0 0 0-.484-.2z"/></g><path d="M417.278 38.029h-19.044a3.61 3.61 0 0 0-2.546 1.051 3.58 3.58 0 0 0-1.055 2.535v16.425a3.58 3.58 0 0 0 1.056 2.534c.675.672 1.59 1.051 2.545 1.052h19.044a3.62 3.62 0 0 0 2.544-1.053 3.59 3.59 0 0 0 1.058-2.533V41.616c-.002-.951-.382-1.862-1.057-2.534s-1.59-1.051-2.545-1.052z" class="D"/><g class="B"><path d="M440.939 72.358h-66.373c-.434 0-.85.171-1.156.477s-.479.719-.479 1.151a1.62 1.62 0 0 0 .479 1.151 1.64 1.64 0 0 0 1.156.477h66.373a1.64 1.64 0 0 0 1.157-.477 1.63 1.63 0 0 0 0-2.302 1.64 1.64 0 0 0-1.157-.477zm-41.163 7.631h-25.21a1.64 1.64 0 0 0-1.156.477c-.306.305-.479.719-.479 1.151a1.62 1.62 0 0 0 .479 1.151 1.64 1.64 0 0 0 1.156.477h25.21a1.64 1.64 0 0 0 1.156-.477c.306-.305.479-.719.479-1.151s-.173-.846-.479-1.151a1.64 1.64 0 0 0-1.156-.477z"/></g><path d="M417.278 109.039h-19.044a3.61 3.61 0 0 0-2.546 1.05 3.58 3.58 0 0 0-1.055 2.536v16.425a3.58 3.58 0 0 0 1.056 2.534c.675.673 1.59 1.051 2.545 1.053h19.044a3.62 3.62 0 0 0 2.544-1.054 3.59 3.59 0 0 0 1.058-2.533v-16.425c-.002-.951-.382-1.862-1.057-2.534a3.61 3.61 0 0 0-2.545-1.052z" class="D"/><g class="B"><path d="M440.939 143.367h-66.373c-.434 0-.85.171-1.156.477a1.62 1.62 0 0 0 0 2.302c.306.306.722.477 1.156.477h66.373a1.64 1.64 0 0 0 1.157-.477c.306-.305.479-.719.479-1.151s-.173-.846-.479-1.151a1.64 1.64 0 0 0-1.157-.477zm-41.163 7.632h-25.21c-.434 0-.85.171-1.156.476a1.63 1.63 0 0 0-.479 1.152 1.62 1.62 0 0 0 .479 1.151 1.64 1.64 0 0 0 1.156.477h25.21a1.64 1.64 0 0 0 1.156-.477c.306-.305.479-.719.479-1.151a1.63 1.63 0 0 0-.479-1.152 1.64 1.64 0 0 0-1.156-.476z"/></g><path d="M417.278 180.048h-19.044c-.955 0-1.871.378-2.546 1.051a3.58 3.58 0 0 0-1.055 2.535v16.426c.001.95.381 1.861 1.056 2.534s1.59 1.05 2.545 1.052h19.044a3.62 3.62 0 0 0 2.544-1.054 3.59 3.59 0 0 0 1.058-2.532v-16.426c-.002-.951-.382-1.862-1.057-2.534s-1.59-1.051-2.545-1.052z" class="D"/><g class="B"><path d="M440.939 214.376h-66.373a1.64 1.64 0 0 0-1.156.477 1.62 1.62 0 0 0-.479 1.151c0 .432.172.846.479 1.152s.722.476 1.156.476h66.373a1.64 1.64 0 0 0 1.157-.476 1.63 1.63 0 0 0 .479-1.152c0-.432-.173-.846-.479-1.151a1.64 1.64 0 0 0-1.157-.477zm-41.163 7.632h-25.21c-.434 0-.85.171-1.156.477a1.62 1.62 0 0 0 0 2.302c.306.306.722.477 1.156.477h25.21c.433 0 .849-.171 1.156-.477s.479-.719.479-1.151-.173-.846-.479-1.151a1.64 1.64 0 0 0-1.156-.477z"/></g><path d="M327.243 2.202c0-.394-.158-.771-.437-1.049s-.658-.435-1.053-.436H59.502c-.395.001-.774.157-1.053.436s-.437.655-.438 1.049v8.736c-.001.364.135.715.382.983-.238 5.932-.382 13.75-.382 22.314v197.183c0 18.491.67 33.525 1.491 33.525h266.251c.821 0 1.49-15.034 1.49-33.525V34.235c0-8.564-.143-16.382-.381-22.314a1.44 1.44 0 0 0 .381-.983V2.202z" class="C"/><path d="M325.753 265.661H59.502c-.814 0-1.305 0-1.773-10.514-.283-6.352-.438-14.778-.438-23.729V34.235c0-8.254.136-16.188.383-22.343C58.146 0 58.686 0 59.502 0h266.251c.816 0 1.355.002 1.829 11.892.246 6.149.382 14.083.382 22.343v197.183c0 8.951-.156 17.378-.438 23.729-.468 10.514-.96 10.514-1.773 10.514zm-265.831-1.435h265.41c.589-2.249 1.191-14.876 1.191-32.808V34.235c0-8.241-.135-16.156-.381-22.285h0c-.3-7.534-.65-9.826-.817-10.515H59.93c-.168.689-.518 2.981-.818 10.515-.246 6.136-.381 14.05-.381 22.286v197.183c0 17.932.602 30.559 1.191 32.808z" class="B"/><path d="M325.753.717H59.502c-.395.001-.774.157-1.053.436s-.437.655-.438 1.049v8.736c-.001.364.135.715.382.983.138.158.309.284.5.37s.399.131.609.132h266.251c.21 0 .417-.045.609-.132s.361-.213.5-.37a1.44 1.44 0 0 0 .381-.983V2.202c0-.394-.158-.771-.437-1.049s-.658-.435-1.053-.436z" class="F"/><g class="C"><path d="M66.668 8.252c1.169 0 2.117-.944 2.117-2.108s-.948-2.108-2.117-2.108-2.117.944-2.117 2.108.948 2.108 2.117 2.108zm8.037 0c1.169 0 2.117-.944 2.117-2.108s-.948-2.108-2.117-2.108-2.117.944-2.117 2.108.948 2.108 2.117 2.108zm8.037 0c1.169 0 2.117-.944 2.117-2.108s-.948-2.108-2.117-2.108-2.117.944-2.117 2.108.948 2.108 2.117 2.108zM317.88 3.328h-9.256a.69.69 0 0 0-.484.2.68.68 0 0 0 0 .964.69.69 0 0 0 .484.2h9.256a.69.69 0 0 0 .484-.2.68.68 0 0 0 0-.964.69.69 0 0 0-.484-.2zm0 2.561h-9.256a.69.69 0 0 0-.484.2.68.68 0 0 0 0 .964.69.69 0 0 0 .484.2h9.256a.69.69 0 0 0 .484-.2.68.68 0 0 0 0-.964.69.69 0 0 0-.484-.2zm0 2.56h-9.256a.69.69 0 0 0-.484.2.68.68 0 0 0 0 .964.69.69 0 0 0 .484.2h9.256a.69.69 0 0 0 .484-.2.68.68 0 0 0 0-.964.69.69 0 0 0-.484-.2z"/></g><path d="M145.561 44.485h-31.16c-1.562.002-3.059.621-4.164 1.721a5.86 5.86 0 0 0-1.727 4.147v26.876a5.86 5.86 0 0 0 1.727 4.147c1.105 1.1 2.602 1.719 4.164 1.721h31.16c1.562-.002 3.059-.621 4.164-1.721s1.725-2.591 1.727-4.147V50.352c-.002-1.555-.623-3.047-1.727-4.147s-2.602-1.719-4.164-1.721z" class="D"/><g class="B"><path d="M274.08 54.878H165.476a2.68 2.68 0 0 0-1.892.781 2.66 2.66 0 0 0 0 3.768 2.68 2.68 0 0 0 1.892.781H274.08a2.68 2.68 0 0 0 1.892-.781 2.66 2.66 0 0 0 0-3.768 2.68 2.68 0 0 0-1.892-.781zm-67.353 12.487h-41.251a2.68 2.68 0 0 0-1.892.781 2.66 2.66 0 0 0 0 3.768 2.68 2.68 0 0 0 1.892.781h41.251a2.68 2.68 0 0 0 1.892-.781c.502-.5.783-1.177.783-1.884a2.66 2.66 0 0 0-.783-1.884 2.68 2.68 0 0 0-1.892-.781z"/></g><path d="M145.561 116.211h-31.16c-1.562.002-3.059.621-4.164 1.721a5.86 5.86 0 0 0-1.727 4.146v26.876a5.86 5.86 0 0 0 1.727 4.147c1.105 1.1 2.602 1.719 4.164 1.721h31.16c1.562-.002 3.059-.621 4.164-1.721s1.725-2.591 1.727-4.147v-26.876c-.002-1.555-.623-3.046-1.727-4.146s-2.602-1.719-4.164-1.721z" class="D"/><g class="B"><path d="M274.08 126.604H165.476a2.68 2.68 0 0 0-1.892.781 2.66 2.66 0 0 0-.784 1.884c0 .707.282 1.385.784 1.884a2.68 2.68 0 0 0 1.892.781H274.08a2.68 2.68 0 0 0 1.892-.781c.502-.499.784-1.177.784-1.884a2.66 2.66 0 0 0-.784-1.884 2.68 2.68 0 0 0-1.892-.781zm-67.353 12.488h-41.251c-.709 0-1.39.281-1.892.78a2.66 2.66 0 0 0 0 3.769c.502.499 1.183.78 1.892.78h41.251c.709 0 1.39-.281 1.892-.78a2.66 2.66 0 0 0 0-3.769c-.502-.499-1.183-.78-1.892-.78z"/></g><path d="M145.561 187.938h-31.16a5.91 5.91 0 0 0-4.164 1.72 5.86 5.86 0 0 0-1.727 4.147v26.876a5.86 5.86 0 0 0 1.727 4.147c1.105 1.099 2.602 1.718 4.164 1.72h31.16c1.562-.002 3.059-.621 4.164-1.72s1.725-2.592 1.727-4.147v-26.876c-.002-1.556-.623-3.047-1.727-4.147a5.91 5.91 0 0 0-4.164-1.72z" class="D"/><g class="B"><path d="M274.08 198.331H165.476c-.709 0-1.39.281-1.892.78a2.66 2.66 0 0 0 0 3.769c.502.499 1.183.78 1.892.78H274.08c.709 0 1.39-.281 1.892-.78a2.66 2.66 0 0 0 0-3.769c-.502-.499-1.183-.78-1.892-.78zm-67.353 12.487h-41.251a2.68 2.68 0 0 0-1.892.781 2.66 2.66 0 0 0-.784 1.884c0 .707.282 1.385.784 1.884a2.68 2.68 0 0 0 1.892.781h41.251a2.68 2.68 0 0 0 1.892-.781c.502-.499.783-1.177.783-1.884s-.281-1.384-.783-1.884a2.68 2.68 0 0 0-1.892-.781z"/></g><path d="M373.293 312.283H194.917c-.822 0-1.491-12.588-1.491-28.062V119.154c0-15.474.669-28.062 1.491-28.062h178.376c.823 0 1.491 12.588 1.491 28.062v165.067c0 15.474-.668 28.062-1.491 28.062z" class="C"/><path d="M373.293 313H194.917c-.755 0-1.3 0-1.773-8.907-.283-5.319-.439-12.376-.439-19.872V119.154c0-7.496.156-14.553.439-19.872.473-8.908 1.018-8.908 1.773-8.908h178.376c.755 0 1.3 0 1.773 8.908.283 5.319.439 12.376.439 19.872v165.067c0 7.496-.156 14.553-.439 19.872-.473 8.907-1.018 8.907-1.773 8.907zm-177.977-1.435h177.578c.517-1.858 1.17-11.758 1.17-27.344V119.154c0-15.586-.653-25.486-1.17-27.345H195.316c-.517 1.858-1.17 11.759-1.17 27.345v165.067c0 15.586.653 25.486 1.17 27.344z" class="B"/><path d="M373.293 102.798H194.917c-.395 0-.774-.157-1.054-.435a1.48 1.48 0 0 1-.437-1.05v-8.736a1.48 1.48 0 0 1 .437-1.05c.28-.278.659-.435 1.054-.435h178.376c.396 0 .775.157 1.054.435a1.48 1.48 0 0 1 .437 1.05v8.736a1.48 1.48 0 0 1-.437 1.05c-.279.278-.658.435-1.054.435z" class="F"/><g class="C"><path d="M202.081 98.628c1.169 0 2.117-.944 2.117-2.108s-.948-2.109-2.117-2.109-2.118.944-2.118 2.109.948 2.108 2.118 2.108z"/><use xlink:href="#D"/><path d="M218.154 98.628c1.17 0 2.118-.944 2.118-2.108s-.948-2.109-2.118-2.109-2.117.944-2.117 2.109.948 2.108 2.117 2.108zm147.265-3.56h-9.255a.69.69 0 0 1-.485-.2c-.128-.128-.2-.302-.2-.483s.072-.355.2-.483a.69.69 0 0 1 .485-.2h9.255a.69.69 0 0 1 .483.201.68.68 0 0 1 0 .964.69.69 0 0 1-.483.201zm0 2.56h-9.255a.69.69 0 0 1-.485-.2c-.128-.128-.2-.302-.2-.483s.072-.355.2-.483a.69.69 0 0 1 .485-.2h9.255c.182 0 .356.072.484.2a.68.68 0 0 1 0 .965c-.128.128-.302.2-.484.2zm0 2.56h-9.255a.69.69 0 0 1-.485-.2c-.128-.128-.2-.302-.2-.483s.072-.355.2-.483a.69.69 0 0 1 .485-.2h9.255a.69.69 0 0 1 .483.201.68.68 0 0 1 0 .964.69.69 0 0 1-.483.201z"/></g><path d="M249.73 157.021h-22.756c-1.141-.001-2.235-.453-3.041-1.256a4.28 4.28 0 0 1-1.262-3.029v-19.627a4.28 4.28 0 0 1 1.262-3.029c.806-.803 1.9-1.255 3.041-1.256h22.756a4.32 4.32 0 0 1 3.042 1.256c.806.804 1.26 1.893 1.261 3.029v19.627c-.001 1.136-.455 2.225-1.261 3.029a4.32 4.32 0 0 1-3.042 1.256z" class="D"/><g class="B"><path d="M343.586 140.308h-79.311a1.96 1.96 0 0 1-1.381-.569 1.94 1.94 0 0 1 0-2.752c.366-.365.863-.57 1.381-.57h79.311c.518 0 1.015.205 1.381.57s.572.86.572 1.376-.206 1.011-.572 1.376a1.96 1.96 0 0 1-1.381.569zm-49.187 9.12h-30.124c-.518 0-1.015-.205-1.381-.57a1.94 1.94 0 0 1 0-2.752 1.96 1.96 0 0 1 1.381-.569h30.124a1.94 1.94 0 0 1 1.384.568c.181.181.326.395.424.632s.149.489.149.745a1.95 1.95 0 0 1-.149.746c-.098.236-.243.45-.424.631a1.96 1.96 0 0 1-.636.422 1.98 1.98 0 0 1-.748.147z"/></g><path d="M249.73 215.12h-22.756a4.32 4.32 0 0 1-3.041-1.257 4.28 4.28 0 0 1-1.262-3.029v-19.626c.001-1.137.455-2.226 1.262-3.029s1.9-1.255 3.041-1.257h22.756a4.32 4.32 0 0 1 3.042 1.257 4.28 4.28 0 0 1 1.261 3.029v19.626c-.001 1.136-.455 2.226-1.261 3.029s-1.901 1.255-3.042 1.257z" class="D"/><g class="B"><path d="M343.586 198.407h-79.311c-.518 0-1.015-.205-1.381-.57a1.94 1.94 0 0 1-.572-1.376c0-.516.205-1.011.572-1.375a1.96 1.96 0 0 1 1.381-.57h79.311c.518 0 1.015.205 1.381.57a1.94 1.94 0 0 1 .572 1.375c0 .516-.206 1.011-.572 1.376s-.863.57-1.381.57zm-49.187 9.119h-30.124c-.518 0-1.015-.205-1.381-.57a1.94 1.94 0 0 1 0-2.751c.366-.365.863-.57 1.381-.57h30.124a1.96 1.96 0 0 1 1.384.569c.181.18.326.395.424.631s.149.49.149.746-.051.509-.149.745a1.96 1.96 0 0 1-.424.632c-.182.18-.398.324-.636.421a1.94 1.94 0 0 1-.748.147z"/></g><path d="M249.73 273.218h-22.756a4.31 4.31 0 0 1-3.041-1.257c-.807-.803-1.261-1.892-1.262-3.028v-19.627a4.28 4.28 0 0 1 1.262-3.029c.806-.803 1.9-1.255 3.041-1.256h22.756a4.32 4.32 0 0 1 3.042 1.256c.806.804 1.26 1.893 1.261 3.029v19.627a4.28 4.28 0 0 1-1.261 3.028c-.807.804-1.901 1.256-3.042 1.257z" class="D"/><g class="B"><path d="M343.586 256.505h-79.311c-.518 0-1.015-.205-1.381-.57a1.94 1.94 0 0 1 0-2.751c.366-.365.863-.57 1.381-.57h79.311c.518 0 1.015.205 1.381.57s.572.86.572 1.376a1.94 1.94 0 0 1-.572 1.375c-.366.365-.863.57-1.381.57zm-49.187 9.12h-30.124c-.518 0-1.015-.205-1.381-.57a1.94 1.94 0 0 1 0-2.752c.366-.365.863-.569 1.381-.569h30.124a1.94 1.94 0 0 1 1.384.568c.181.181.326.395.424.632s.149.489.149.745-.051.509-.149.745a1.96 1.96 0 0 1-1.06 1.054 1.98 1.98 0 0 1-.748.147z"/></g></g><defs><clipPath id="A"><path d="M0 0h527v313H0z" class="C"/></clipPath><path id="B" d="M372.18 14.708c1.169 0 2.117-.944 2.117-2.108s-.948-2.108-2.117-2.108-2.117.944-2.117 2.108.948 2.108 2.117 2.108z"/><path id="C" d="M449.691 12.344h-9.256a.69.69 0 0 0-.484.2.68.68 0 0 0 0 .964.69.69 0 0 0 .484.2h9.256a.69.69 0 0 0 .484-.2.68.68 0 0 0 0-.964.69.69 0 0 0-.484-.2z"/><path id="D" d="M210.117 98.628c1.17 0 2.118-.944 2.118-2.108s-.948-2.109-2.118-2.109-2.117.944-2.117 2.109.948 2.108 2.117 2.108z"/></defs></svg>